<?xml version="1.0" standalone="no"?>
<!DOCTYPE svg PUBLIC "-//W3C//DTD SVG 20010904//EN"
 "http://www.w3.org/TR/2001/REC-SVG-20010904/DTD/svg10.dtd">
<svg version="1.0" xmlns="http://www.w3.org/2000/svg"
 width="560.000000pt" height="560.000000pt" viewBox="0 0 560.000000 560.000000"
 preserveAspectRatio="xMidYMid meet">
<metadata>
Created by potrace 1.14, written by Peter Selinger 2001-2017
</metadata>
<g transform="translate(0.000000,560.000000) scale(0.100000,-0.100000)"
fill="#000000" stroke="none">
<path d="M3088 5503 c6 -2 18 -2 25 0 6 3 1 5 -13 5 -14 0 -19 -2 -12 -5z"/>
<path d="M3158 5493 c7 -3 16 -2 19 1 4 3 -2 6 -13 5 -11 0 -14 -3 -6 -6z"/>
<path d="M3265 5476 c11 -8 24 -12 29 -8 5 3 1 9 -10 13 -31 12 -39 10 -19 -5z"/>
<path d="M3310 5471 c0 -7 8 -14 18 -17 9 -3 26 -10 37 -15 l20 -9 -20 4 c-44
10 -89 15 -77 10 9 -4 10 -10 2 -19 -8 -9 -4 -14 17 -18 16 -4 35 -11 43 -17
13 -9 13 -11 0 -20 -12 -8 -11 -10 7 -10 13 0 28 -9 35 -20 8 -13 24 -20 42
-20 18 0 26 -4 21 -9 -6 -5 -47 -1 -100 10 -49 10 -100 18 -111 19 -12 0 -27
6 -33 14 -10 12 -8 15 14 19 24 4 24 4 -2 3 -18 -1 -27 -6 -25 -15 2 -10 -5
-12 -32 -7 -19 4 -105 11 -193 16 -406 25 -814 -46 -1182 -206 -774 -337
-1339 -1032 -1509 -1854 -46 -220 -56 -349 -47 -609 4 -124 8 -247 9 -273 0
-25 4 -41 8 -35 5 7 7 1 6 -13 0 -14 7 -62 17 -108 9 -46 15 -86 12 -89 -3 -3
-9 12 -13 33 -7 36 -34 100 -34 79 0 -5 7 -31 15 -58 10 -32 11 -55 5 -70 -9
-22 -10 -22 -8 3 2 42 -2 61 -11 56 -10 -7 -28 13 -50 57 -9 17 -23 31 -30 29
-11 -2 -12 6 -8 35 4 23 3 33 -2 24 -8 -12 -10 -12 -14 0 -2 8 -2 4 0 -8 4
-24 -12 -32 -21 -10 -3 6 -2 -1 1 -18 4 -16 7 -38 7 -47 0 -9 3 -15 6 -13 3 1
11 -3 17 -11 7 -7 9 -15 4 -19 -5 -3 -12 1 -15 7 -4 7 -4 2 -1 -12 2 -14 5
-34 6 -45 l0 -20 10 20 c8 17 8 15 4 -8 -5 -24 22 -155 35 -167 3 -3 5 -11 6
-17 1 -7 2 -22 2 -34 1 -12 6 -17 14 -13 7 4 8 3 4 -5 -16 -26 136 -383 223
-526 24 -38 51 -83 61 -100 21 -38 82 -123 140 -199 204 -265 447 -486 728
-660 146 -91 239 -139 254 -130 6 4 8 3 5 -3 -14 -22 365 -164 523 -197 14 -3
52 -12 85 -20 33 -9 69 -13 81 -10 12 3 25 1 28 -5 4 -6 19 -11 34 -11 25 0
25 1 7 14 -11 8 -23 12 -27 10 -5 -3 -8 1 -8 9 0 8 -7 20 -15 27 -12 10 -15
10 -15 0 0 -9 -7 -7 -20 5 -11 10 -20 24 -20 30 0 7 -17 16 -37 20 l-38 8 50
12 c28 7 43 13 35 14 -8 1 -26 4 -40 6 -22 5 -22 4 -5 -4 17 -8 13 -10 -19
-10 -37 -1 -39 0 -20 14 17 13 17 14 2 15 -9 0 -19 4 -22 8 -2 4 34 0 82 -10
48 -10 97 -18 110 -18 13 0 21 -3 19 -7 -3 -5 16 -8 41 -9 26 0 119 -5 207
-11 489 -33 987 78 1410 314 784 437 1284 1233 1334 2120 8 147 1 396 -14 477
-6 30 -5 37 5 31 9 -6 9 -2 -1 16 -18 34 -40 157 -33 188 5 21 3 23 -6 11 -10
-13 -11 -13 -6 2 3 10 -1 30 -9 45 -8 15 -15 35 -14 43 0 8 7 -2 16 -23 12
-29 18 -35 25 -25 7 9 8 7 4 -8 -5 -14 2 -29 22 -50 40 -41 69 -57 75 -41 2 7
3 -13 1 -43 l-3 -55 11 45 c10 42 11 43 20 21 5 -16 5 -28 -2 -35 -5 -5 -9
-21 -9 -35 1 -24 2 -24 8 4 4 17 12 29 18 28 7 -2 8 9 1 35 -5 20 -9 44 -10
52 -1 30 -38 178 -71 285 -92 298 -232 571 -421 820 -73 96 -242 291 -282 324
-16 13 -52 45 -79 70 -226 206 -530 393 -826 509 -140 55 -348 116 -424 125
-22 3 -48 8 -57 12 -11 4 -18 3 -18 -4z m80 -61 c11 -7 5 -8 -20 -4 -43 8 -51
14 -19 14 13 0 31 -5 39 -10z m63 3 c-7 -2 -19 -2 -25 0 -7 3 -2 5 12 5 14 0
19 -2 13 -5z m67 -123 c0 -5 -5 -10 -11 -10 -5 0 -7 5 -4 10 3 6 8 10 11 10 2
0 4 -4 4 -10z m90 -20 c8 -5 11 -10 5 -10 -5 0 -17 5 -25 10 -8 5 -10 10 -5
10 6 0 17 -5 25 -10z m-1103 -173 c30 -107 124 -298 176 -354 91 -99 163 -99
254 0 50 55 134 221 169 335 15 48 30 91 34 95 19 22 367 -64 542 -134 102
-40 275 -123 291 -138 5 -5 -5 -49 -22 -99 -65 -196 -86 -399 -48 -469 47 -87
175 -85 355 6 73 37 161 92 216 134 l39 31 49 -55 c163 -180 307 -386 403
-577 31 -63 55 -114 53 -116 -157 -95 -311 -227 -367 -315 -41 -63 -49 -125
-22 -168 49 -78 218 -132 437 -141 l132 -5 6 -36 c3 -20 8 -78 12 -128 l7 -93
-530 0 -531 0 -7 68 c-13 134 -63 319 -110 412 -12 25 -26 56 -30 70 -4 14
-15 33 -23 43 -13 15 -14 18 -2 15 15 -3 35 -34 43 -65 4 -14 5 -14 6 4 0 12
-4 25 -10 28 -26 17 5 36 61 37 16 0 19 2 8 5 -23 6 -23 23 -2 23 14 0 14 3 4
15 -7 9 -10 18 -7 22 4 3 1 13 -6 21 -9 12 -9 14 0 9 7 -5 16 1 22 12 14 25
14 34 1 26 -5 -3 -10 2 -10 11 0 9 -25 50 -55 91 -373 495 -993 721 -1590 578
-579 -138 -1026 -593 -1155 -1176 -89 -399 -6 -841 219 -1176 121 -178 229
-286 440 -440 3 -2 -114 -262 -298 -658 -34 -71 -65 -131 -69 -133 -4 -1 -61
34 -126 78 -491 336 -836 819 -986 1383 -58 218 -74 348 -74 607 -1 129 3 260
7 291 l8 56 132 5 c219 9 382 60 434 137 50 75 15 159 -119 286 -69 66 -207
170 -266 201 -1 1 13 35 31 75 49 106 155 281 241 397 76 103 222 272 234 272
4 0 40 -24 79 -54 189 -140 409 -214 487 -162 85 55 85 248 0 504 -19 57 -32
108 -28 114 11 17 227 117 346 159 146 52 397 116 468 118 23 1 27 -6 47 -82z
m344 -978 c16 -11 29 -28 29 -38 0 -9 5 -22 11 -28 6 -6 22 -57 37 -114 22
-88 26 -124 25 -234 -1 -141 -31 -325 -58 -355 -8 -9 -15 -25 -15 -36 0 -23
-61 -154 -72 -154 -4 0 -8 -7 -8 -15 0 -8 -4 -15 -10 -15 -5 0 -16 -13 -25
-29 -21 -41 -190 -208 -228 -226 -18 -8 -45 -24 -62 -35 -33 -22 -152 -80
-164 -80 -5 0 -21 -6 -37 -14 -81 -40 -409 -49 -534 -15 -41 11 -88 23 -105
26 -16 3 -33 12 -38 19 -4 7 -23 16 -42 20 -19 3 -35 11 -35 18 0 6 -5 4 -11
-4 -8 -12 -10 -9 -6 12 2 15 0 25 -4 22 -5 -3 -9 -13 -9 -22 0 -15 -2 -15 -10
-2 -13 20 -5 169 14 258 113 528 544 946 1066 1036 185 31 253 33 291 5z
m1140 -596 c-10 -16 -11 -15 -5 7 6 23 6 24 -12 10 -18 -14 -18 -14 -5 3 19
24 38 6 22 -20z m1334 -33 c10 -11 16 -20 13 -20 -3 0 -13 9 -23 20 -10 11
-16 20 -13 20 3 0 13 -9 23 -20z m22 -52 c-3 -8 -6 -5 -6 6 -1 11 2 17 5 13 3
-3 4 -12 1 -19z m109 -64 c-4 -9 -9 -15 -11 -12 -3 3 -3 13 1 22 4 9 9 15 11
12 3 -3 3 -13 -1 -22z m-2236 -790 c52 -30 80 -78 80 -134 0 -90 -40 -165
-101 -190 l-28 -12 22 -18 c18 -15 22 -28 22 -77 0 -118 -94 -249 -209 -292
-54 -20 -74 -21 -382 -21 -257 0 -325 3 -321 13 3 6 69 176 147 377 78 200
144 368 147 373 3 4 136 7 296 5 273 -3 294 -4 327 -24z m901 15 c70 -15 107
-50 118 -114 17 -92 -16 -192 -85 -259 -36 -35 -125 -76 -164 -76 -11 0 -20
-2 -20 -5 0 -3 25 -71 55 -150 30 -80 55 -148 55 -151 0 -2 -55 -3 -122 -2
l-123 3 -49 143 -49 143 -90 -3 -89 -3 -54 -139 c-29 -76 -55 -140 -57 -143
-3 -2 -45 -2 -95 -1 l-91 3 139 360 c77 198 144 370 150 383 10 22 10 22 264
22 148 0 277 -5 307 -11z m1007 -12 c64 -35 90 -146 58 -251 -21 -70 -75 -129
-154 -168 l-66 -33 -224 -3 c-198 -3 -224 -5 -229 -20 -3 -9 -28 -74 -55 -144
l-49 -128 -105 0 c-58 0 -104 4 -104 9 0 8 73 200 252 659 l40 103 301 -3
c269 -3 306 -5 335 -21z m-4991 -279 c-3 -8 -6 -5 -6 6 -1 11 2 17 5 13 3 -3
4 -12 1 -19z m147 -188 c-5 -5 -10 3 -11 18 -1 22 0 24 9 8 6 -10 6 -22 2 -26z
m1733 -482 c-3 -8 -6 -5 -6 6 -1 11 2 17 5 13 3 -3 4 -12 1 -19z m-37 -68 c-6
-11 -13 -20 -16 -20 -2 0 0 9 6 20 6 11 13 20 16 20 2 0 0 -9 -6 -20z m70
-1260 c-8 -5 -22 -9 -30 -9 -10 0 -8 3 5 9 27 12 43 12 25 0z m80 -20 c8 -5
11 -10 5 -10 -5 0 -17 5 -25 10 -8 5 -10 10 -5 10 6 0 17 -5 25 -10z m100
-115 c11 -13 10 -14 -4 -9 -9 3 -16 10 -16 15 0 13 6 11 20 -6z"/>
<path d="M4112 3577 c-14 -16 8 -47 34 -47 15 0 13 4 -11 20 -26 18 -27 25 -2
21 5 -1 6 3 2 9 -8 13 -10 13 -23 -3z"/>
<path d="M4050 3456 c0 -8 5 -18 10 -21 6 -3 10 1 10 9 0 8 -4 18 -10 21 -5 3
-10 -1 -10 -9z"/>
<path d="M4180 3461 c0 -6 4 -13 10 -16 6 -3 7 1 4 9 -7 18 -14 21 -14 7z"/>
<path d="M2693 2373 l-30 -78 163 -3 c184 -3 209 4 244 61 25 41 25 73 1 87
-11 6 -90 10 -184 10 l-164 0 -30 -77z"/>
<path d="M2703 2162 l-91 -3 -31 -77 c-17 -42 -31 -80 -31 -84 0 -12 306 -9
358 3 58 14 92 48 92 94 0 25 -6 38 -22 47 -28 15 -152 24 -275 20z"/>
<path d="M3674 2425 c-8 -20 -23 -58 -34 -85 l-20 -50 143 0 c78 0 160 5 182
11 54 15 107 70 103 106 -5 45 -35 53 -206 53 l-153 0 -15 -35z"/>
<path d="M4633 2423 c-3 -10 -16 -44 -29 -75 l-23 -58 167 0 c148 0 171 2 199
20 32 19 48 52 41 86 -6 35 -46 44 -201 44 -132 0 -148 -2 -154 -17z"/>
<path d="M3288 5393 c7 -3 16 -2 19 1 4 3 -2 6 -13 5 -11 0 -14 -3 -6 -6z"/>
<path d="M3298 5373 c6 -2 18 -2 25 0 6 3 1 5 -13 5 -14 0 -19 -2 -12 -5z"/>
<path d="M3288 5353 c7 -3 16 -2 19 1 4 3 -2 6 -13 5 -11 0 -14 -3 -6 -6z"/>
<path d="M5351 3334 c0 -11 3 -14 6 -6 3 7 2 16 -1 19 -3 4 -6 -2 -5 -13z"/>
<path d="M5500 3214 c0 -10 5 -26 10 -34 8 -11 9 -7 4 15 -8 37 -14 45 -14 19z"/>
<path d="M100 2415 c0 -5 5 -17 10 -25 5 -8 10 -10 10 -5 0 6 -5 17 -10 25 -5
8 -10 11 -10 5z"/>
<path d="M2278 213 c7 -3 16 -2 19 1 4 3 -2 6 -13 5 -11 0 -14 -3 -6 -6z"/>
<path d="M2433 83 c9 -2 25 -2 35 0 9 3 1 5 -18 5 -19 0 -27 -2 -17 -5z"/>
</g>
</svg>
